<svg xmlns="http://www.w3.org/2000/svg" xmlns:xlink="http://www.w3.org/1999/xlink" viewBox="0,0,256,256" width="50px" height="50px"><g fill="none" fill-rule="nonzero" stroke="none" stroke-width="1" stroke-linecap="butt" stroke-linejoin="miter" stroke-miterlimit="10" stroke-dasharray="" stroke-dashoffset="0" font-family="none" font-weight="none" font-size="none" text-anchor="none" style="mix-blend-mode: normal"><g transform="scale(5.12,5.12)"><path d="M14,2.483l-3,1.732v28.868l25,14.434l3,-1.732v-28.868z" fill="#313131"></path><path d="M34,41.743l-19,-10.969v-21.94l19,10.97z" fill="#d1d1d1"></path><path d="M39,45.785l-3,1.732v-28.868l3,-1.732z" fill="#383838"></path><path d="M39,16.917l-3,1.732l-25,-14.434l3,-1.732z" fill="#b4b4b6"></path><path d="M29,28.464l-1,0.577l-4,-2.309l1,-0.577z" fill="#b4b4b6"></path><path d="M13,31.928l2,-1.154l19,10.969v2.31z" fill="#b4b4b6"></path><path d="M13,31.928l2,-1.154v-21.94l-2,-1.155z" fill="#383838"></path><path d="M29,28.464l-1,0.577v1.155l1,-0.577z" fill="#383838"></path><path d="M25.001,19.226l-1,-0.577l-1.001,0.578l1,0.577z" fill="#b4b4b6"></path><path d="M25,26.155l-1,0.577v-6.928l1.001,-0.578z" fill="#383838"></path><path d="M24,26.732v-6.928l-1,-0.577v8.082l1,0.578l4,2.309v-1.155z" fill="#313131"></path></g></g></svg>